<?xml version="1.0" encoding="utf-8"?>
<!-- Generator: Adobe Illustrator 23.0.2, SVG Export Plug-In . SVG Version: 6.00 Build 0)  -->
<svg version="1.1"
	 id="图层_1" xmlns:cc="http://creativecommons.org/ns#" xmlns:dc="http://purl.org/dc/elements/1.1/" xmlns:rdf="http://www.w3.org/1999/02/22-rdf-syntax-ns#"
	 xmlns="http://www.w3.org/2000/svg" xmlns:xlink="http://www.w3.org/1999/xlink" x="0px" y="0px" viewBox="0 0 128 128"
	 style="enable-background:new 0 0 128 128;" xml:space="preserve">
<style type="text/css">
	.st0{fill:#4B77BE;}
	.st1{fill:#F39E32;}
	.st2{fill:#E84817;}
	.st3{fill:#6D4F9D;}
	.st4{fill:#5FC2D7;}
	.st5{fill:#E0E337;}
	.st6{fill:#53B66F;}
</style>
<path class="st0" d="M20,0h88c11,0,20,9,20,20v88c0,11-9,20-20,20H20c-11,0-20-9-20-20V20C0,9,9,0,20,0z"/>
<g>
	<path class="st1" d="M78.5,74.3c0,0-0.2-51.5-0.2-53.1c0-1.6-1.1-3.7-3.2-5.2c-9.5-5.7-17.4-7.8-23.7-8.8c-8.9-1.5-12.1,0-14.7,1.1
		c-3.7,1.6-7.3,4.8-10.5,11.1c-0.5,2.1,0,3.7,1.6,4.7C28.4,24.6,78.5,74.3,78.5,74.3L78.5,74.3z"/>
	<g>
		<path class="st2" d="M85.9,78.5c0,0,9.5,0,10.5,0c1.6,0,3.7-1.6,4.2-3.2c2.1-5.3,3.1-9.5,3.6-13.7c1-5.3,2.1-11-0.1-16.8
			C101.5,37.5,92,28.1,92,28.1c-2.1-1.6-3.7-3.1-5.8-4.7c-1.1-1-3.7,0-3.7,1.6c0,2.1,0.2,49.4,0.2,49.4
			C84.3,75.4,85.4,76.4,85.9,78.5z"/>
		<path class="st3" d="M85.9,81.1c-0.5,1.6-1.6,3.2-3.1,3.7l0.1,24.2c1-1.6,2.6-3.2,3.7-5.3c3.7-5.3,6.8-11.1,9.9-17.9
			c0.5-1.1-1.1-4.2-2.6-4.2C91.7,81.1,85.9,81.1,85.9,81.1z"/>
	</g>
	<g>
		<path class="st4" d="M57.2,121.2c3.2,1.6,6.3,2.6,8.4,2.1c3.7-0.5,8.4-3.7,13.1-9.5l-0.1-27.8c-0.5,0-0.5,0-1.1-0.5L57.2,121.2z"
			/>
		<path class="st5" d="M28.1,78.7l46.2-0.2c0-0.5,0-0.5,0.5-1.1c0,0-45.4-45-46.9-46.6c-2.1-2.1-4.7-1.6-4.7,1.1
			c-1,7.4-0.5,16.3,1.2,28.4C25.4,66.7,26.5,72.4,28.1,78.7z"/>
		<path class="st6" d="M54.5,119.6l20.9-36.3c-0.5-0.5-0.5-1-1.1-2.1l-45.2,0.2c2.7,8.4,6.4,16.3,11.1,23.6
			C45.6,111.8,50.3,116.5,54.5,119.6z"/>
	</g>
</g>
</svg>
