<?xml version="1.0" encoding="utf-8"?>
<!-- Generator: Adobe Illustrator 23.0.2, SVG Export Plug-In . SVG Version: 6.00 Build 0)  -->
<svg version="1.1"
	 id="图层_1" xmlns:cc="http://creativecommons.org/ns#" xmlns:dc="http://purl.org/dc/elements/1.1/" xmlns:rdf="http://www.w3.org/1999/02/22-rdf-syntax-ns#"
	 xmlns="http://www.w3.org/2000/svg" xmlns:xlink="http://www.w3.org/1999/xlink" x="0px" y="0px" viewBox="0 0 32 32"
	 style="enable-background:new 0 0 32 32;" xml:space="preserve">
<style type="text/css">
	.st0{fill:#4B77BE;}
	.st1{fill:#F39E32;}
	.st2{fill:#E84817;}
	.st3{fill:#6D4F9D;}
	.st4{fill:#5FC2D7;}
	.st5{fill:#E0E337;}
	.st6{fill:#53B66F;}
</style>
<path class="st0" d="M5,0h22c2.8,0,5,2.2,5,5v22c0,2.8-2.2,5-5,5H5c-2.8,0-5-2.2-5-5V5C0,2.2,2.2,0,5,0z"/>
<g>
	<path class="st1" d="M19.7,18.6c0,0-0.1-12.7-0.1-13c0-0.4-0.3-0.9-0.8-1.3c-2.3-1.4-4.3-1.9-5.8-2.2c-2.2-0.4-3,0-3.6,0.3
		C8.6,2.7,7.7,3.5,6.9,5C6.8,5.6,6.9,6,7.3,6.2C7.4,6.3,19.7,18.6,19.7,18.6L19.7,18.6z"/>
	<g>
		<path class="st2" d="M21.5,19.6c0,0,2.3,0,2.6,0c0.4,0,0.9-0.4,1-0.8c0.5-1.3,0.8-2.3,0.9-3.4c0.3-1.3,0.5-2.7,0-4.1
			c-0.7-1.8-3-4.1-3-4.1c-0.5-0.4-0.9-0.8-1.4-1.2c-0.3-0.3-0.9,0-0.9,0.4c0,0.5,0,12.1,0,12.1C21.1,18.8,21.4,19.1,21.5,19.6z"/>
		<path class="st3" d="M21.5,20.2c-0.1,0.4-0.4,0.8-0.8,0.9l0,5.9c0.3-0.4,0.6-0.8,0.9-1.3c0.9-1.3,1.7-2.7,2.4-4.4
			c0.1-0.3-0.3-1-0.6-1C23,20.2,21.5,20.2,21.5,20.2z"/>
	</g>
	<g>
		<path class="st4" d="M14.5,30.1c0.8,0.4,1.6,0.6,2.1,0.5c0.9-0.1,2.1-0.9,3.2-2.3l0-6.8c-0.1,0-0.1,0-0.3-0.1L14.5,30.1z"/>
		<path class="st5" d="M7.3,19.6l11.4,0c0-0.1,0-0.1,0.1-0.3c0,0-11.2-11.1-11.5-11.4C6.8,7.4,6.1,7.5,6.1,8.2c-0.3,1.8-0.1,4,0.3,7
			C6.7,16.7,6.9,18.1,7.3,19.6z"/>
		<path class="st6" d="M13.8,29.7l5.1-8.9c-0.1-0.1-0.1-0.3-0.3-0.5l-11.1,0c0.7,2.1,1.6,4,2.7,5.8C11.6,27.8,12.8,28.9,13.8,29.7z"
			/>
	</g>
</g>
</svg>
