<?xml version="1.0" encoding="utf-8"?>
<!-- Generator: Adobe Illustrator 23.0.2, SVG Export Plug-In . SVG Version: 6.00 Build 0)  -->
<svg version="1.1"
	 id="图层_1" xmlns:cc="http://creativecommons.org/ns#" xmlns:dc="http://purl.org/dc/elements/1.1/" xmlns:rdf="http://www.w3.org/1999/02/22-rdf-syntax-ns#"
	 xmlns="http://www.w3.org/2000/svg" xmlns:xlink="http://www.w3.org/1999/xlink" x="0px" y="0px" viewBox="0 0 16 16"
	 style="enable-background:new 0 0 16 16;" xml:space="preserve">
<style type="text/css">
	.st0{fill:#4B77BE;}
	.st1{fill:#F39E32;}
	.st2{fill:#E84817;}
	.st3{fill:#6D4F9D;}
	.st4{fill:#5FC2D7;}
	.st5{fill:#E0E337;}
	.st6{fill:#53B66F;}
</style>
<path class="st0" d="M2.6,0C1.2,0,0.1,1.1,0.1,2.5v11c0,1.4,1.1,2.5,2.5,2.5h11c1.4,0,2.5-1.1,2.5-2.5v-11c0-1.4-1.1-2.5-2.5-2.5
	H2.6z"/>
<g>
	<path class="st1" d="M10.1,9.3c0,0,0-6.6,0-6.8c0-0.2-0.1-0.5-0.4-0.7c-1.2-0.7-2.2-1-3-1.1c-1.1-0.2-1.6,0-1.9,0.1
		C4.3,1,3.8,1.4,3.4,2.2c-0.1,0.3,0,0.5,0.2,0.6C3.7,2.9,10.1,9.3,10.1,9.3L10.1,9.3z"/>
	<g>
		<path class="st2" d="M11.1,9.8c0,0,1.2,0,1.3,0c0.2,0,0.5-0.2,0.5-0.4c0.3-0.7,0.4-1.2,0.5-1.8c0.1-0.7,0.3-1.4,0-2.2
			c-0.3-0.9-1.6-2.2-1.6-2.2c-0.3-0.2-0.5-0.4-0.7-0.6c-0.1-0.1-0.5,0-0.5,0.2c0,0.3,0,6.3,0,6.3C10.9,9.4,11,9.5,11.1,9.8z"/>
		<path class="st3" d="M11.1,10.1c-0.1,0.2-0.2,0.4-0.4,0.5l0,3.1c0.1-0.2,0.3-0.4,0.5-0.7c0.5-0.7,0.9-1.4,1.3-2.3
			c0.1-0.1-0.1-0.5-0.3-0.5C11.8,10.1,11.1,10.1,11.1,10.1z"/>
	</g>
	<g>
		<path class="st4" d="M7.4,15.3c0.4,0.2,0.8,0.3,1.1,0.3c0.5-0.1,1.1-0.5,1.7-1.2l0-3.6c-0.1,0-0.1,0-0.1-0.1L7.4,15.3z"/>
		<path class="st5" d="M3.6,9.8l5.9,0c0-0.1,0-0.1,0.1-0.1c0,0-5.8-5.8-6-6C3.3,3.4,3,3.5,3,3.8C2.9,4.8,2.9,5.9,3.2,7.5
			C3.3,8.3,3.4,9,3.6,9.8z"/>
		<path class="st6" d="M7,15.1l2.7-4.7c-0.1-0.1-0.1-0.1-0.1-0.3l-5.8,0c0.3,1.1,0.8,2.1,1.4,3C5.9,14.1,6.5,14.7,7,15.1z"/>
	</g>
</g>
</svg>
