<?xml version="1.0" encoding="utf-8"?>
<!-- Generator: Adobe Illustrator 23.0.2, SVG Export Plug-In . SVG Version: 6.00 Build 0)  -->
<svg version="1.1" id="图层_1" xmlns="http://www.w3.org/2000/svg" xmlns:xlink="http://www.w3.org/1999/xlink" x="0px" y="0px"
	 viewBox="0 0 600 300" style="enable-background:new 0 0 600 300;" xml:space="preserve">
<style type="text/css">
	.st0{fill:#F39E32;}
	.st1{fill:#E84817;}
	.st2{fill:#6D4F9D;}
	.st3{fill:#5FC2D7;}
	.st4{fill:#E0E337;}
	.st5{fill:#53B66F;}
	.st6{fill:#FFFFFF;}
</style>
<g>
	<path class="st0" d="M325.1,113.6c0,0-0.3-79.1-0.3-81.5c0-2.5-1.6-5.7-4.9-8c-14.5-8.8-26.7-12-36.4-13.6
		c-13.8-2.3-18.6,0.1-22.6,1.7c-5.7,2.5-11.3,7.3-16.1,17c-0.7,3.2,0,5.7,2.5,7.3C248.2,37.3,325.1,113.6,325.1,113.6L325.1,113.6z"
		/>
	<g>
		<path class="st1" d="M336.4,120c0,0,14.5,0,16.1,0c2.5,0,5.7-2.5,6.4-4.9c3.2-8.1,4.8-14.5,5.5-21c1.6-8.1,3.2-17-0.1-25.8
			c-4.1-11.3-18.7-25.7-18.7-25.7c-3.2-2.5-5.7-4.8-8.8-7.3c-1.6-1.6-5.7,0-5.7,2.5c0,3.2,0.3,75.9,0.3,75.9
			C334.1,115.2,335.7,116.8,336.4,120z"/>
		<path class="st2" d="M336.6,124.1c-0.7,2.5-2.5,4.8-4.8,5.7l0.1,37.1c1.6-2.5,4.1-4.8,5.7-8.1c5.7-8.1,10.4-17,15.2-27.6
			c0.9-1.6-1.6-6.4-4.1-6.4C345.4,124.1,336.6,124.1,336.6,124.1z"/>
	</g>
	<g>
		<path class="st3" d="M292.3,185.6c4.8,2.5,9.7,4.1,12.9,3.2c5.7-0.9,12.9-5.7,20.2-14.6l-0.1-42.8c-0.9,0-0.9,0-1.6-0.9
			L292.3,185.6z"/>
		<path class="st4" d="M247.8,120.4l70.9-0.3c0-0.9,0-0.9,0.9-1.6c0,0-69.6-69-72.1-71.5c-3.2-3.2-7.3-2.3-7.3,1.6
			c-1.6,11.3-0.7,24.9,1.7,43.5C243.6,101.9,245.3,110.7,247.8,120.4z"/>
		<path class="st5" d="M288.4,183.1l32.1-55.8c-0.9-0.9-0.9-1.6-1.6-3.2l-69.3,0.3c4.1,12.9,9.7,24.9,17.1,36.3
			C274.6,171.1,281.9,178.3,288.4,183.1z"/>
	</g>
</g>
<g>
	<path class="st6" d="M84.2,283.5c17.8-7.6,28.3-18.2,31.2-31.8H85.2v-5.5h31c0.2-3.4,0.4-9.2,0.4-17.6H89.2v-5.5H151v5.5h-28.2
		c0,5-0.1,10.8-0.2,17.6h32v5.5h-31.2c4.6,15.1,15.2,25.2,32,30.3c-2,2.4-3.6,4.4-5,6c-15.6-6.2-25.8-16.6-30.7-31
		c-3.7,13.5-14.2,24.2-31.3,32C87.7,287.6,86.2,285.9,84.2,283.5z"/>
	<path class="st6" d="M161.8,222.3h62.6V289H219v-3.7h-51.8v3.7h-5.5v-66.7H161.8z M219,227.6h-51.8v52.6H219V227.6z M177.9,251.4
		h12.5v-8.6h-18.9v-4.9h18.9v-8.3h5.2v8.3h18.9v4.9h-18.9v8.6h12.7v23.2h-5.1v-3H183v3h-5.1L177.9,251.4L177.9,251.4z M203.2,256.1
		H183v10.8h20.2V256.1z"/>
	<path class="st6" d="M257.3,262.8c4.2,3.1,8.6,6.5,13.1,10l-3.6,4.6c-3.9-3.6-8-7.1-12.5-10.7V289h-5.2v-24.3
		c-4,6.5-8.7,12.2-14,17.2c-0.9-0.9-2.4-2.1-4.2-3.7c7.5-6,13.2-12.8,17.2-20.6h-14.6v-5.2h15.7v-5.6h5.2v5.6h14.7v5.2h-14.7v8.8
		L257.3,262.8z M233.4,228.8c-0.4-1.6-0.7-3.4-1.2-5.2c14-0.6,26.5-1.4,37.8-2.2l1.2,5.1C261.9,227.2,249.3,227.9,233.4,228.8z
		 M233.2,235l4.2-2.4c2.2,3.7,4.4,7.5,6.5,11.2l-4.6,2.6C237.6,243,235.6,239.2,233.2,235z M246.3,232.4l4.4-2.2
		c2.2,4.1,4.4,8,6.4,11.7l-4.7,2.5C250.7,240.7,248.7,236.7,246.3,232.4z M258.8,244.9c2.6-4.2,5.2-9.3,8-15.1l4.7,2.6
		c-2,3.7-4.9,8.7-8.3,14.7L258.8,244.9z M263.5,284.1c15.2-6.2,26.5-14.3,33.6-24.3l4.4,3.7c-8.2,10.6-19.7,19.1-34.4,25.3
		C266,287.3,264.8,285.6,263.5,284.1z M297.8,224.8c-6.1,7.2-14.5,13.7-24.9,19.6c-1.4-1.9-2.5-3.4-3.6-4.6
		c10.3-4.9,18.2-10.8,23.7-17.9L297.8,224.8z M299.3,244.5c-6.4,7.2-14.6,13.7-25,19.2c-0.9-1.4-2-3-3.2-4.7
		c10.7-5.2,18.7-11.2,23.8-17.9L299.3,244.5z"/>
	<path class="st6" d="M306.5,224.1h67v5.2h-37.6c-2.7,6.4-6,12.3-9.8,18.1h41.4v40.9h-5.6v-6.4h-36.5v6.6h-5.6v-32.6
		c-3.9,4.7-8,9.1-12.7,13.3c-1-2-2-3.7-3.2-5.5c11.1-9.6,19.7-21.1,25.7-34.5h-23.1v-5.1H306.5z M361.8,252.7h-36.5v24h36.5V252.7z"
		/>
	<path class="st6" d="M424,258c7.1,7.9,14.1,16.2,21.1,25l-5.4,4c-1.7-2.4-3.5-4.6-5.1-6.9c-17.1,0.6-31.5,1.2-43.4,2
		c-2,0.2-4,0.6-5.7,1.1l-2.9-6.6c2.9-1.4,5.2-3.2,7.1-5.5c5.1-6.2,9.8-13,14.2-20.2h-25.8v-5.2h69.9v5.2h-36.4
		c-7.1,10.7-13.3,19.1-18.6,25.3c16.2-0.4,28.8-0.7,37.6-1.1c-3.7-4.9-7.6-9.5-11.5-14L424,258z M384.8,223.7h56.6v5.2h-56.6V223.7z
		"/>
	<path class="st6" d="M450.7,281.6h9.3v-18.8h52.6v18.8h8.8v4.7h-70.8L450.7,281.6L450.7,281.6z M451.7,241.8h12.5
		c0.2-1.5,0.2-6.9,0.2-16.3h15.5c0.9-2.4,1.6-4.7,2.2-7.4l6.1,1.5c-0.7,1.9-1.6,3.9-2.5,5.7h25.2v16.3h9.8v4.7h-9.8v5.2
		c0,5.5-2.4,8.2-7,8.2c-2.5,0-5.6,0-9.2-0.1c-0.2-1.7-0.6-3.6-1.1-5.5c3,0.4,5.7,0.5,8.3,0.5c2.4,0,3.6-1.4,3.6-4.1v-4.2H469
		c-1.2,6.9-5.5,13-12.7,18.2c-1.4-1.7-2.6-3.4-4-4.7c5.9-3.7,9.5-8.2,11-13.5h-11.6V241.8z M465.2,281.6h10.5v-14.2h-10.5V281.6z
		 M505.4,230.1h-35.6c0,4.7,0,8.6-0.2,11.7h35.9V230.1z M477,251.2l3-3.6c4.5,2.6,8.3,5.1,11.5,7.5l-3.2,4.2
		C485.2,256.9,481.4,254.1,477,251.2z M479.7,233.9l3-3.6c3.9,2.1,7.4,4.4,10.7,6.6l-3.4,4.2C486.7,238.7,483.3,236.2,479.7,233.9z
		 M480.9,281.6h10.5v-14.2h-10.5V281.6z M507.2,267.4h-10.6v14.2h10.7v-14.2H507.2z"/>
</g>
</svg>
