<?xml version="1.0" encoding="utf-8"?>
<!-- Generator: Adobe Illustrator 23.0.2, SVG Export Plug-In . SVG Version: 6.00 Build 0)  -->
<svg version="1.1" id="图层_1" xmlns="http://www.w3.org/2000/svg" xmlns:xlink="http://www.w3.org/1999/xlink" x="0px" y="0px"
	 viewBox="0 0 102 27" style="enable-background:new 0 0 102 27;" xml:space="preserve">
<style type="text/css">
	.st0{fill:#F29D32;}
	.st1{fill:#E74817;}
	.st2{fill:#6D4F9C;}
	.st3{fill:#5FC1D6;}
	.st4{fill:#DFE237;}
	.st5{fill:#53B56F;}
	.st6{fill:#FFFFFF;}
	.st7{font-family:'MicrosoftYaHeiLight';}
	.st8{font-size:12px;}
</style>
<g>
	<path class="st0" d="M14.5,15.5c0,0,0-9.9,0-10.2c0-0.3-0.2-0.7-0.7-1C12,3.2,10.5,2.7,9.3,2.6C7.5,2.2,7,2.6,6.5,2.8
		C5.8,3.2,5,3.7,4.5,5c-0.1,0.4,0,0.7,0.3,0.9C4.9,5.9,14.5,15.5,14.5,15.5L14.5,15.5z"/>
	<g>
		<path class="st1" d="M16,16.3c0,0,1.8,0,2,0c0.3,0,0.7-0.3,0.8-0.6c0.4-1,0.6-1.8,0.7-2.7c0.2-1,0.4-2.2,0-3.2
			c-0.5-1.4-2.3-3.2-2.3-3.2C16.8,6.2,16.5,6,16,5.7c-0.2-0.2-0.7,0-0.7,0.3c0,0.4,0,9.5,0,9.5C15.7,15.7,15.9,15.9,16,16.3z"/>
		<path class="st2" d="M16,16.8c-0.1,0.3-0.3,0.6-0.6,0.7v4.7c0.2-0.3,0.5-0.6,0.7-1c0.7-1,1.3-2.2,1.9-3.4c0.1-0.2-0.2-0.8-0.5-0.8
			C17.1,16.8,16,16.8,16,16.8z"/>
	</g>
	<g>
		<path class="st3" d="M10.5,24.6c0.6,0.3,1.2,0.5,1.6,0.4c0.7-0.1,1.6-0.7,2.5-1.8v-5.3c-0.1,0-0.1,0-0.2-0.1L10.5,24.6z"/>
		<path class="st4" d="M4.9,16.3h8.9c0-0.1,0-0.1,0.1-0.2c0,0-8.7-8.7-9.1-9C4.4,6.7,3.9,6.8,3.9,7.3c-0.2,1.4-0.1,3.2,0.2,5.5
			C4.3,14,4.5,15.1,4.9,16.3z"/>
		<path class="st5" d="M10,24.2l4-7c-0.1-0.1-0.1-0.2-0.2-0.4H5c0.5,1.6,1.2,3.2,2.2,4.6C8.2,22.7,9.1,23.6,10,24.2z"/>
	</g>
</g>
<text transform="matrix(1 0 0 1 24.5186 17.7744)" class="st6 st7 st8">天固彩石云盘</text>
</svg>
